<?xml version="1.0" encoding="utf-8"?>
<!-- Generator: Adobe Illustrator 27.5.0, SVG Export Plug-In . SVG Version: 6.00 Build 0)  -->
<svg version="1.1" id="Layer_1"
	xmlns="http://www.w3.org/2000/svg"
	xmlns:xlink="http://www.w3.org/1999/xlink" x="0px" y="0px" viewBox="0 0 2807 1604" style="enable-background:new 0 0 2807 1604;opacity:0.2" xml:space="preserve">
	<g>
		<g>
			<defs>

				<rect id="SVGID_1_" x="0" transform="matrix(-1 -1.224647e-16 1.224647e-16 -1 2806.2429 1603.5675)" width="2806.243" height="1603.568"/>
			</defs>
			<clipPath id="SVGID_00000142149163659764698500000010266443460134902957_">
				<use xlink:href="#SVGID_1_" style="overflow:visible;"/>
			</clipPath>
			<g style="clip-path:url(#SVGID_00000142149163659764698500000010266443460134902957_);">
				<linearGradient id="SVGID_00000103984198126669140050000014942228084398164645_" gradientUnits="userSpaceOnUse" x1="1512.5809" y1="1548.2343" x2="1512.5809" y2="-217.5887" gradientTransform="matrix(-1 0 0 1 3026.5525 0)">
					<stop offset="0.0969" style="stop-color:#333752"/>
					<stop offset="0.2114" style="stop-color:#5A607F"/>
					<stop offset="0.3301" style="stop-color:#7E84A3"/>
					<stop offset="0.4513" style="stop-color:#A1A7C4"/>
					<stop offset="0.5759" style="stop-color:#D7DBEC"/>
					<stop offset="0.7052" style="stop-color:#E6E9F4"/>
					<stop offset="0.8422" style="stop-color:#F5F6FA"/>
					<stop offset="1" style="stop-color:#FFFFFF"/>
				</linearGradient>
				<path style="fill:url(#SVGID_00000103984198126669140050000014942228084398164645_);" d="M-377.385,1422.798
				c-13.95-75.294,35.78-147.64,111.075-161.589c-26.249-13.106-36.901-45.007-23.796-71.255
				c13.104-26.248,45.007-36.902,71.255-23.796c-52.942-23.737-76.618-85.898-52.879-138.84
				c22.071-49.228,77.358-73.094,127.57-57.124c-51.911-22.643-79.449-81.261-62.052-136.494
				c12.191-38.707,43.452-66.018,80.155-75.12c-48.897-12.776-88.702-52.418-99.129-105.326
				c-14.522-73.686,33.439-145.191,107.125-159.714c37.505-64.53,120.221-86.437,184.751-48.931
				c58.44,33.967,81.921,105.014,57.971,166.052c43.207-77.949,138.901-112.879,223.312-78.126
				c90.898,37.425,134.248,141.451,96.823,232.351c34.475-33.724,89.762-33.115,123.486,1.36
				c33.725,34.476,33.114,89.761-1.361,123.485c36.159-7.634,71.66,15.49,79.295,51.648c7.635,36.159-15.491,71.66-51.648,79.295
				c31.876-3.663,60.87,17.388,67.9,47.937c36.88-27.417,85.851-37.547,133.154-23.035
				c64.071,19.657,105.359,78.447,105.699,142.106c7.325-4.88,15.667-8.494,24.818-10.376c33.809-6.953,66.889,11.618,79.392,42.508
				c-11.266-46.196,13.027-94.724,58.542-112.464c45.543-17.751,96.3,1.569,119.25,43.253
				c-30.616-71.114-2.141-155.018,67.4-192.139c73.333-39.146,164.514-11.431,203.66,61.903
				c-7.255-39.172,18.618-76.809,57.79-84.064c39.173-7.256,76.809,18.618,84.065,57.79c-0.278-26.374,20.877-47.98,47.253-48.257
				c8.863-0.093,17.159,2.278,24.316,6.41c-8.469-30.631-0.871-64.802,23.048-89.054c35.623-36.117,93.78-36.516,129.897-0.893
				c6.417-43.394,46.795-73.37,90.19-66.953c43.392,6.416,73.369,46.795,66.952,90.189c1.932-19.552,16.788-34.666,35.263-37.82
				c-0.034-0.619-0.116-1.224-0.127-1.849c-0.474-27.015,21.042-49.3,48.057-49.774c-44.261-74.331-19.883-170.47,54.45-214.731
				c74.331-44.261,170.47-19.883,214.731,54.45c13.145-49.276,63.749-78.565,113.024-65.42
				c17.099,4.562,31.709,13.702,43.057,25.663c4.036-1.695,8.38-2.846,12.959-3.321c-44.515-35.861-51.53-101.019-15.669-145.534
				c35.86-44.516,101.018-51.531,145.534-15.67c-23-22.394-23.49-59.194-1.095-82.193c22.395-22.999,59.193-23.49,82.193-1.095
				c6.97-45.986,49.9-77.615,95.886-70.644c45.987,6.97,77.615,49.9,70.645,95.887c45.472-28.224,105.216-14.243,133.44,31.229
				c28.224,45.472,14.244,105.215-31.229,133.44c40.636-11.878,83.207,11.435,95.085,52.072c5.504,18.829,3.376,38.034-4.454,54.448
				c28.371-11.634,61.659-10.238,89.9,6.868c47.3,28.65,62.418,90.219,33.77,137.518c62.564,18.005,98.686,83.319,80.681,145.882
				c-5.213,18.113-14.481,33.916-26.41,46.925c34.364,5.263,67.065,22.423,91.325,51.008
				c53.447,62.975,45.722,157.353-17.252,210.799c15.825,0.747,28.05,14.181,27.303,30.007
				c-0.747,15.826-14.181,28.05-30.008,27.303c73.516,30.684,108.236,115.155,77.553,188.669
				c-27.92,66.892-100.37,101.646-168.579,84.252c44.678,20.08,70.585,69.428,59.392,119.064
				c-12.781,56.678-69.087,92.262-125.765,79.482c37.988,32.876,42.133,90.324,9.257,128.314
				c-18.251,21.088-44.074,31.704-69.936,31.39c24.451,19.583,39.572,50.12,37.978,83.804
				c-2.647,55.862-50.076,99.002-105.938,96.355c-5.722,64.242-62.439,111.681-126.682,105.958
				c-52.446-4.671-93.661-43.342-103.926-92.338c-4.518,42.774-35.43,79.956-79.687,90.222
				c-55.842,12.954-111.611-21.813-124.565-77.655c-2.034,26.234-24.95,45.852-51.185,43.817
				c-26.235-2.034-45.853-24.95-43.817-51.185c-15.342,27.356-49.957,37.095-77.314,21.752c-1.12-0.629-2.164-1.338-3.224-2.03
				c-3.768,27.8-18.462,54.053-43.101,71.631c-47.355,33.783-113.132,22.781-146.915-24.574
				c-26.718,73.707-108.126,111.801-181.835,85.084c-70.036-25.386-107.872-100.149-88.552-170.767
				c-17.645,47.446-68.428,75.156-118.749,62.723c-32.458-8.02-57.231-30.954-69.06-59.667c-3.559,6.332-8.392,12.085-14.472,16.836
				c-24.613,19.232-60.156,14.869-79.388-9.743c10.623,79.291-45.043,152.18-124.335,162.803
				c-79.291,10.622-152.18-45.045-162.803-124.336c9.098,46.194-20.976,91.017-67.169,100.114
				c-46.194,9.097-91.017-20.976-100.114-67.169c-25.987,31.905-72.918,36.702-104.823,10.716
				c-19.819-16.143-29.158-40.366-27.176-64.049c-24.951,38.621-71.618,60.291-119.518,50.992
				c-21.78-4.228-40.849-14.388-56.091-28.354c-16.938,22.903-46.968,33.917-75.801,25.207
				c5.399,42.524-24.699,81.372-67.225,86.769c-42.523,5.397-81.372-24.701-86.769-67.225
				c1.532,83.252-64.716,151.985-147.968,153.517c-83.253,1.533-151.985-64.715-153.518-147.968
				c-25.071,17.868-59.879,12.029-77.746-13.042c-0.921-1.292-1.74-2.625-2.536-3.966c-19.407,34.35-54.657,59.037-96.902,63.183
				c-62.505,6.135-118.779-34.764-133.716-93.856c6.134,58.994-31.3,115.288-90.443,130.852
				c-65.355,17.198-132.277-21.841-149.475-87.196c-98.537,6.376-183.583-68.333-189.96-166.869
				c-6.375-98.535,68.334-183.583,166.87-189.959c-50.798-2.705-89.785-46.078-87.081-96.875
				c2.228-41.805,32.016-75.55,70.799-84.702c-27.802-2.669-52.486-21.861-60.687-50.328c-10.718-37.2,10.749-76.046,47.951-86.765
				C-291.09,1547.822-363.436,1498.092-377.385,1422.798z"/>

				<linearGradient id="SVGID_00000147192214904906569310000009476976233210154894_" gradientUnits="userSpaceOnUse" x1="1597.455" y1="1745.5593" x2="1597.455" y2="549.271" gradientTransform="matrix(-1 0 0 1 3026.5525 0)">
					<stop offset="0" style="stop-color:#2289E9"/>
					<stop offset="0.0969" style="stop-color:#333752"/>
					<stop offset="0.2114" style="stop-color:#5A607F"/>
					<stop offset="0.3301" style="stop-color:#7E84A3"/>
					<stop offset="0.4513" style="stop-color:#A1A7C4"/>
					<stop offset="0.5759" style="stop-color:#D7DBEC"/>
					<stop offset="0.7052" style="stop-color:#E6E9F4"/>
					<stop offset="0.8422" style="stop-color:#F5F6FA"/>
					<stop offset="1" style="stop-color:#FFFFFF"/>
				</linearGradient>
				<path style="fill:url(#SVGID_00000147192214904906569310000009476976233210154894_);" d="M-140.995,1650.498
				c1.108-78.27,65.456-140.823,143.725-139.715c-52.329-35.447-66.015-106.604-30.569-158.934
				c8.377-12.368,18.796-22.495,30.443-30.406c-6.063-4.805-11.73-10.284-16.757-16.594
				c-35.572-44.646-28.215-109.676,16.432-145.247c-33.302-7.948-53.856-41.388-45.908-74.69
				c7.948-33.302,41.388-53.856,74.689-45.908c-59.326-8.512-100.518-63.505-92.007-122.83
				c8.512-59.326,63.505-100.518,122.831-92.006c4.039-41.805,41.201-72.42,83.007-68.382c41.805,4.038,72.419,41.202,68.381,83.007
				c74.156-3.198,136.864,54.326,140.062,128.481c0.935,21.724-3.37,42.448-11.748,60.998c16.72,10.858,29.23,28.16,33.417,49.258
				c6.055-60.411,59.935-104.475,120.345-98.421c60.41,6.055,104.475,59.935,98.421,120.345c1.047,1.168,1.949,2.411,2.925,3.617
				c1.625,0.101,3.249,0.195,4.882,0.356c73.239,7.215,126.763,72.436,119.548,145.676c10.58-19.027,31.454-28.659,51.8-25.909
				c12.91-24.574,33.046-45.687,59.345-59.805c70.098-37.631,157.431-11.31,195.063,58.789
				c13.144-39.972,56.203-61.719,96.175-48.574c9.438,3.104,17.814,7.92,24.999,13.924c10.607-9.625,25.378-14.427,40.561-11.681
				c-11.865-68.315,33.896-133.314,102.212-145.18c68.314-11.865,133.314,33.896,145.178,102.211
				c14.327-56.767,71.958-91.173,128.727-76.848c30.156,7.61,53.894,27.499,67.477,52.928c16.073-17.17,42.575-21.002,63.074-7.839
				c-0.129-34.106,27.415-61.86,61.521-61.989c19.283-0.073,36.526,8.708,47.903,22.512c16.989-22.711,47.455-32.609,75.41-22.264
				c18.688,6.915,32.308,21.448,38.752,38.765c4.721-9.486,12.376-17.611,22.559-22.759c25.109-12.693,55.753-2.629,68.447,22.48
				c-20.333-50.829,4.39-108.517,55.218-128.85c50.829-20.333,108.518,4.39,128.85,55.219c5.08-3.438,10.622-5.659,16.287-6.749
				c-4.253-46.189,13.573-93.619,51.957-125.484c60.035-49.835,148.24-43.27,200.326,13.707
				c-19.23-24.475-17.454-60.006,5.224-82.39c23.507-23.201,60.817-23.722,85.028-1.881c-0.062-0.301-0.125-0.605-0.094-0.927
				c0.169-1.701,1.683-2.944,3.383-2.776c-36.78-50.726-25.476-121.666,25.251-158.447c47.901-34.732,113.79-26.541,151.956,17.187
				c-17.242-25.028-14.409-59.537,8.205-81.3c25.15-24.204,65.159-23.436,89.363,1.714c49.839,22.88,71.692,81.831,48.812,131.669
				c-4.884,10.636-11.485,19.909-19.215,27.832c23.283,7.101,44.724,21.074,60.918,41.652
				c42.165,53.584,32.91,131.205-20.674,173.372c23.869-0.054,43.262,19.252,43.317,43.122
				c0.054,23.869-19.253,43.263-43.122,43.317c37.416,35.223,39.193,94.109,3.971,131.525
				c-12.637,13.423-28.334,22.178-44.977,26.365c28.03,19.934,47.79,51.245,51.934,88.116c5.207,46.36-15.612,89.621-50.79,115.271
				c32.086-1.855,64.579,11.045,86.489,37.819c36.341,44.409,29.8,109.869-14.607,146.209
				c43.994,17.793,65.233,67.882,47.441,111.877c-7.357,18.191-20.281,32.41-35.967,41.669
				c17.139,6.827,32.263,19.092,42.373,36.205c24.259,41.067,10.634,94.023-30.433,118.282
				c13.963,49.844-15.124,101.571-64.968,115.534c-49.844,13.963-101.572-15.124-115.534-64.968
				c-10.937,94.785-96.641,162.759-191.428,151.823c-94.785-10.937-162.759-96.641-151.822-191.427
				c-6.326,46.727-49.333,79.478-96.059,73.153c-39.417-5.336-68.786-36.802-73.245-74.557
				c-4.875,41.498-37.573,75.793-80.884,80.84c-50.622,5.9-96.441-30.354-102.342-80.976
				c-12.428,44.471-58.554,70.446-103.026,58.016c-28.947-8.09-49.967-30.488-57.75-57.383
				c-4.97,10.593-13.445,19.625-24.792,25.131c-26.319,12.771-58.006,1.789-70.776-24.527
				c-23.693,82.643-109.894,130.431-192.537,106.738c-65.895-18.891-109.584-77.531-112.593-142.412
				c-8.241,14.792-22.129,26.436-39.709,31.412c-35.098,9.934-71.603-10.466-81.537-45.564c-7.643,32.937-40.54,53.442-73.476,45.8
				c-24.454-5.674-42.026-25.276-46.341-48.472c-7.268,66.784-61.484,120.808-130.845,125.515
				c-57.632,3.911-109.5-27.332-134.713-75.398c-1.646,4.3-3.908,8.444-6.857,12.281c-16.38,21.324-46.946,25.331-68.27,8.949
				c-16.452,58.111-76.897,91.883-135.008,75.431c-36.565-10.352-63.463-38.132-74.306-71.779
				c-10.506,44.84-44.66,82.629-92.232,95.506c-68.99,18.675-140.059-22.115-158.734-91.107
				c-26.507,22.542-66.271,19.328-88.813-7.18c-2.934-3.452-5.409-7.135-7.478-10.969c-21.944,44.171-65.674,76.21-118.404,80.84
				c-80.563,7.075-151.607-52.499-158.682-133.062c-7.582,11.684-23.199,15.009-34.883,7.428
				c-11.684-7.581-15.008-23.199-7.428-34.883c-10.133,17.275-32.354,23.063-49.629,12.929
				c-17.276-10.134-23.065-32.355-12.93-49.63C-79.55,1793.116-142.102,1728.768-140.995,1650.498z"/>

				<linearGradient id="SVGID_00000092452831076736928500000003265402716617934504_" gradientUnits="userSpaceOnUse" x1="1613.3887" y1="2725.2673" x2="1613.3887" y2="743.6185" gradientTransform="matrix(-1 0 0 1 3026.5525 0)">
					<stop offset="0" style="stop-color:#2289E9"/>
					<stop offset="0.0969" style="stop-color:#333752"/>
					<stop offset="0.2114" style="stop-color:#5A607F"/>
					<stop offset="0.3301" style="stop-color:#7E84A3"/>
					<stop offset="0.4513" style="stop-color:#A1A7C4"/>
					<stop offset="0.5759" style="stop-color:#D7DBEC"/>
					<stop offset="0.7052" style="stop-color:#E6E9F4"/>
					<stop offset="0.8422" style="stop-color:#F5F6FA"/>
					<stop offset="1" style="stop-color:#FFFFFF"/>
				</linearGradient>
				<path style="fill:url(#SVGID_00000092452831076736928500000003265402716617934504_);" d="M-135.27,1103.631
				c-33.913-23.81-42.104-70.603-18.295-104.516c23.81-33.913,70.603-42.104,104.516-18.294
				c-13.19-20.648-7.142-48.077,13.504-61.266c20.648-13.189,48.077-7.143,61.266,13.505
				c15.299-53.958,71.442-85.299,125.401-70.001c53.957,15.298,85.298,71.442,70,125.4c58.341-17.095,119.494,16.341,136.589,74.681
				c14.931,50.955-8.694,104.045-53.782,128.062c1.814,0.453,3.604,1.089,5.287,2.109c7.218,4.377,10.406,12.77,8.607,20.57
				c18.844-46.688,70.923-71.31,119.344-55.18c50.351,16.773,77.569,71.186,60.797,121.536
				c11.169-30.061,44.594-45.376,74.655-34.207c30.061,11.169,45.376,44.594,34.207,74.655
				c27.978-39.207,82.442-48.309,121.648-20.33c30.646,21.869,42.795,59.901,33.324,94.198
				c21.66-31.242,61.414-46.937,100.075-36.096c17.731,4.972,32.725,14.866,44.037,27.74c3.937-11.313,10.323-21.965,19.349-31.015
				c32.083-32.173,84.171-32.245,116.344-0.163c15.436-26.149,49.148-34.833,75.297-19.396c3.178,1.876,6.087,4.031,8.737,6.401
				c4.858-49.512,35.86-94.919,84.842-115.833c42.071-17.963,88.015-13.836,124.933,7.155
				c20.535-39.577,60.536-67.871,108.268-71.296c69.066-4.954,129.532,43.931,140.341,111.018
				c0.754-13.807,9.933-26.316,23.927-30.589c17.91-5.468,36.864,4.619,42.332,22.53c1.371-46.464,40.15-83.019,86.614-81.648
				c27.2,0.802,50.931,14.478,65.72,34.956c-2.181-39.962,17.172-79.785,53.816-101.926
				c52.874-31.949,121.634-14.987,153.584,37.887c37.148-22.174,84.144-13.155,110.835,19.244
				c24.857-40.932,65.955-71.857,116.545-82.352c93.64-19.425,185.355,38.198,209.324,129.651
				c-2.479-19.755,8.951-39.271,28.485-46.216c18.662-6.635,38.823,0.308,49.784,15.668c-20.303-44.431-4.806-98.031,37.887-124.232
				c31.419-19.281,69.407-18.704,99.413-1.843c-31.016-43.532-34.006-103.364-2.923-150.745
				c40.448-61.658,123.222-78.852,184.881-38.403c78.094,9.192,133.95,79.952,124.758,158.047
				c-7.803,66.283-59.964,116.523-123.309,124.59c23.104,5.948,42.44,23.787,49.075,48.47c8.45,31.435-6.469,63.596-34.087,78.181
				c72.225-24.505,152.692,9.228,184.998,80.115c34.442,75.579,1.096,164.769-74.483,199.212
				c63.471,18.977,99.541,85.814,80.563,149.285c-18.977,63.471-85.814,99.54-149.285,80.563
				c-23.408,19.278-57.948,16.02-77.368-7.2c-18.202,49.238-61.437,87.686-116.904,97.134
				c-82.631,14.074-161.025-41.501-175.099-124.132c-10.116,22.284-36.38,32.149-58.665,22.034
				c-16.691-7.576-26.411-24.213-25.99-41.451c-9.27,23.462-32.996,39.208-59.467,37.179c-21.257-1.63-38.96-14.35-48.026-32.023
				c4.233,56.872-30.225,111.573-86.761,130.608c-66.939,22.537-139.474-13.458-162.011-80.396
				c-12.903,56.385-69.074,91.635-125.46,78.73c-56.387-12.904-91.634-69.075-78.731-125.46
				c-19.272,32.979-61.628,44.091-94.607,24.819c-16.088-9.401-26.925-24.31-31.615-40.929
				c-16.777,48.899-61.27,85.675-116.089,89.939c-73.593,5.725-137.892-49.293-143.617-122.885
				c-0.676,37.247-31.42,66.895-68.668,66.219s-66.895-31.419-66.219-68.668c-3.611,56-51.936,98.469-107.934,94.858
				c-32.568-2.1-60.477-19.379-77.489-44.439c-1.784,4.414-4.125,8.68-7.153,12.647c-18.206,23.847-52.295,28.421-76.143,10.216
				c6.698,73.72-47.635,138.91-121.353,145.607c-73.72,6.697-138.91-47.636-145.608-121.355
				c-8.382,25.326-35.708,39.061-61.035,30.679c-25.326-8.383-39.062-35.709-30.679-61.035
				c-24.257,61.21-93.543,91.166-154.753,66.908c-46.005-18.232-74.34-61.898-75.289-108.455
				c-14.777,33.669-47.394,58.075-86.618,60.34c-55.681,3.214-103.424-39.318-106.639-94.998
				c-5.298,55.576-54.647,96.334-110.222,91.036c-39.914-3.805-72.076-30.38-85.132-65.616
				c-3.834,31.754-24.375,60.507-56.143,73.291c-46.43,18.683-99.215-3.81-117.898-50.24c-49.08-10.53-80.33-58.854-69.8-107.934
				c7.472-34.826,34.003-60.581,66.302-68.896c-37.923-7.147-69.987-35.831-79.399-75.813
				c-12.737-54.107,20.803-108.294,74.909-121.03c-71.568,20.538-146.235-20.829-166.773-92.397
				C-248.206,1198.837-206.839,1124.169-135.27,1103.631z"/>
			</g>
		</g>

	</g>
</svg>
